<svg xml:space="preserve" style="enable-background:new 0 0 500 500;" viewBox="0 0 500 500" y="0px" x="0px" xmlns:xlink="http://www.w3.org/1999/xlink" xmlns="http://www.w3.org/2000/svg" id="图层_1" version="1.1">
<style type="text/css">
	.st0{fill:#FFFDF0;}
	.st1{fill:#E6C077;}
	.st2{fill:#C46573;}
	.st3{fill:#683E35;}
	.st4{fill:#F38B82;}
</style>
<g>
	<g>
		<path d="M133.32,175.06c0,0-34.43,69.27,27.48,145.74c-3.64,6.47-16.19,35.2,0.4,61.91
			c13.35,19.02,31.16,9.31,32.37,6.88c2.67-2.24,7.61-19.03,4.62-30.28c6.9,7.95,19.49,16.49,19.49,16.49s-0.6,23.99-1.65,31.94
			c-1.05,7.95,6.6,14.69,11.25,15.59c4.65,0.9,34.47-0.16,42.97-40.05c3.52,1.47,10.27,4.99,10.27,4.99s-9.97,17.31,12.61,24.64
			c22.59,7.33,66.59,5.28,76.56-7.92c9.97-13.2,13.79-17.6,13.79-17.6s9.68,5.28,19.07,5.87s40.19-3.81,45.47-42.83
			c2.05-20.53-3.23-34.32-5.57-35.79c-2.35-1.47-11.44-22.59-25.23-23.47s-33.15-1.47-36.96,1.17c0,0-11.44-14.37-27.57-18.48
			c-7.63-1.47-33.73-26.4-40.48-40.19c-6.75-13.79-33.15-82.43-38.72-85.07c-0.59-3.52,6.45-22,4.69-31.39
			c-1.76-9.39-29.04-7.63-46.64,6.75c-9.68-3.52-14.37-4.69-14.37-4.69s0.29-18.19-5.28-20.83s-27.28,9.97-29.92,21.12
			c-9.97,3.52-28.75,13.2-35.2,24.93C141.18,147.72,127.52,153.99,133.32,175.06z" class="st0"></path>
	</g>
	<g>
		<path d="M160.4,173.38c0,0,17.43,5.91,40.77-7.98s44.61,3.55,40.18,26.59c-4.43,23.05-28.29,46.49-19.89,80.77
			s-5.77,98.72-5.77,107.65s-1.29,32.66,1.1,32.66s54.22-24.43,55.41-66.73c0,0,1.79,34.56,2.38,38.73c0.6,4.17,4.77,4.77,4.77,4.77
			l2.96,0.03c0,0,76.9,17.98,92.21,9.32c15.31-8.65,10.99-17.31,10.99-17.31s6.32,9.99,10.99,9.65
			c4.66-0.33,40.94-59.25-10.65-97.53c0,0-30.29-20.97-47.93-33.29c-17.64-12.32-28.96-27.96-33.29-42.28
			c-4.33-14.31-23.3-65.91-34.95-69.57c0,0,11.65-21.97,7.32-33.29s-35.29,2-44.94,9.32c-2.66-0.67-18.97-6.99-18.97-6.99
			s8.99-18.31-1-18.97c-9.99-0.67-28.63,16.64-30.63,20.97c-2,4.33-32.29,16.98-36.28,25.96
			C141.18,154.85,160.4,173.38,160.4,173.38z" class="st1"></path>
	</g>
	<g>
		<g>
			<g>
				<path d="M172.51,332.24c0,0-11.31,36.62-2.98,52.1c8.34,15.48-22.63-4.76-18.16-36.62
					c4.47-31.86,15.78-20.84,15.78-20.84L172.51,332.24z" class="st1"></path>
			</g>
			<g>
				<path d="M168.56,191.76c0,0-9.79,14.52-6.12,28.86s22.21,20.81,38.48,8.57s34.98-34.63,26.76-49.32
					C219.46,165.17,171.71,191.93,168.56,191.76z" class="st2"></path>
			</g>
			<g>
				<path d="M192.3,117.05c0,0,9.94-9.83,12.42-9.72c2.48,0.11-5.29,10.15-5.29,10.15L192.3,117.05z" class="st0"></path>
			</g>
			<g>
				<path d="M202.05,121.45c-0.84,0-1.67-0.32-2.31-0.96c-1.28-1.28-1.28-3.35,0-4.62c1.73-1.73,2.84-6.15,3.13-8.53
					c0.22-1.79,1.84-3.07,3.64-2.85c1.79,0.22,3.07,1.84,2.85,3.63c-0.1,0.86-1.12,8.49-5,12.37
					C203.72,121.13,202.89,121.45,202.05,121.45z" class="st3"></path>
			</g>
			<g>
				<path d="M242.34,129.16c0,0,20.62-10.65,27.38-7.27s-4.23,21.47-4.23,21.47L242.34,129.16z" class="st0"></path>
			</g>
			<g>
				<path d="M216.16,209.96c0,0-9.32-16.42-18.2-10.21c-8.88,6.21,7.1,22.19,7.1,22.19" class="st4"></path>
			</g>
			<g>
				<path d="M231.81,426.8c-1.21,0-2.44-0.06-3.69-0.19c-4.66-0.42-8.34-2.23-10.9-5.38
					c-6.16-7.58-4.62-21.03-2.83-36.61c1.43-12.46,2.91-25.34,0.44-35.76c-0.42-1.76,0.67-3.52,2.43-3.94
					c1.76-0.41,3.52,0.67,3.93,2.43c2.73,11.53,1.12,25.6-0.31,38.01c-1.55,13.52-3.02,26.29,1.41,31.74c1.42,1.75,3.53,2.73,6.45,3
					c7.86,0.79,14.6-1.35,20.64-6.54c21.96-18.84,24.94-70.32,24.97-70.84c0.1-1.8,1.66-3.17,3.44-3.09c1.8,0.1,3.19,1.63,3.09,3.44
					c-0.12,2.23-3.15,54.78-27.23,75.45C247.24,424.02,239.91,426.8,231.81,426.8z" class="st3"></path>
			</g>
			<g>
				<path d="M320.25,419.67c-17.35,0-33.45-3.37-40.48-10.39c-0.03-0.03-0.07-0.07-0.1-0.1
					c-4.48-4.88-5.79-11.85-3.43-18.18c2.63-7.04,9.19-12.16,17.93-14.17c-3.37-11.05-10.9-43.41,10.64-58.23
					c1.49-1.02,3.52-0.65,4.55,0.84c1.02,1.49,0.65,3.52-0.84,4.55c-21.44,14.74-7.13,53.88-6.99,54.27
					c0.35,0.94,0.25,1.99-0.27,2.85c-0.52,0.86-1.42,1.43-2.41,1.54c-8.19,0.94-14.35,4.92-16.48,10.63
					c-1.51,4.06-0.74,8.32,2.07,11.43c5.89,5.81,21.93,9.07,40.9,8.31c19.13-0.77,36.6-5.54,44.62-12.15
					c17.29-18.75,24.64-46.28,19.66-73.7c-3.98-21.89-15.2-39.86-29.29-46.91c-36.46-18.23-50.62-41.06-58.11-56.64
					c-0.06-0.13-0.12-0.27-0.16-0.41c-19.91-61.73-30.59-71.55-31.91-72.58c-0.83-0.27-1.31-0.8-1.69-1.61
					c-0.4-0.84-0.19-1.73,0.17-2.59c5.78-13.74,8.36-27.89,5.44-29.8c-15.66-8.64-40.69,9.4-40.94,9.58
					c-0.92,0.67-2.12,0.82-3.17,0.38c-0.12-0.05-12.7-5.11-29.44-4.77c-22.22,0.43-40.97,9.64-55.75,27.37
					c-1.16,1.39-3.22,1.58-4.6,0.42c-1.39-1.16-1.57-3.22-0.42-4.6c20.06-24.07,44.2-29.45,60.91-29.72
					c14.5-0.24,25.9,3.17,30.07,4.63c6.11-4.11,29.56-18.45,46.58-8.96c0.04,0.02,0.07,0.04,0.1,0.06
					c8.95,5.44,1.8,26.54-1.86,35.74c4.77,4.94,15.52,21.17,32.65,74.22c14.76,30.59,38.47,45.14,55.04,53.42
					c15.9,7.95,28.46,27.71,32.8,51.58c5.36,29.5-2.65,59.21-21.44,79.47c-0.09,0.1-0.19,0.19-0.29,0.28
					C363.48,414.86,340.98,419.67,320.25,419.67z M270.27,150.67L270.27,150.67L270.27,150.67z" class="st3"></path>
			</g>
			<g>
				<path d="M218.01,378.75c-0.68,0-1.37-0.21-1.96-0.65c-30.17-22.56-53.59-47.03-69.63-72.73
					c-12.9-20.67-21.08-42.18-24.31-63.92c-2.88-19.4-1.21-35.41,0.7-45.42c2.09-10.95,4.88-17.27,4.99-17.53
					c0.73-1.65,2.67-2.39,4.32-1.65c1.65,0.73,2.39,2.66,1.66,4.31l0,0c-0.11,0.24-10.51,24.32-5.14,59.75
					c3.15,20.8,11.06,41.42,23.49,61.27c15.6,24.92,38.43,48.7,67.84,70.7c1.45,1.08,1.74,3.13,0.66,4.58
					C219.99,378.29,219.01,378.75,218.01,378.75z" class="st3"></path>
			</g>
			<g>
				<path d="M188.92,158.27c-0.08,0-0.16,0-0.24-0.01l-16.02-1.14c-1.8-0.13-3.16-1.69-3.03-3.49
					c0.13-1.8,1.7-3.16,3.49-3.03l16.02,1.14c1.8,0.13,3.16,1.69,3.03,3.49C192.05,156.96,190.62,158.27,188.92,158.27z" class="st3"></path>
			</g>
			<g>
				<path d="M163.74,149.88c-1.24,0-2.43-0.71-2.98-1.92l-3.81-8.39c-0.75-1.64-0.02-3.58,1.62-4.33
					c1.64-0.75,3.58-0.02,4.33,1.62l3.81,8.39c0.75,1.64,0.02,3.58-1.62,4.33C164.65,149.78,164.19,149.88,163.74,149.88z" class="st3"></path>
			</g>
			<g>
				<path d="M181.74,122.9c-0.39,0-0.78-0.07-1.16-0.21c-1.69-0.64-2.53-2.53-1.89-4.22
					c3.61-9.48,15.75-18.18,25.34-21.54c4.62-1.62,8.13-1.76,10.41-0.42c1.61,0.95,6.67,5.3,3.88,21.36c-0.31,1.78-2,2.97-3.78,2.66
					c-1.78-0.31-2.97-2-2.67-3.78c1.23-7.13,0.59-13.82-0.76-14.61c-3.46-1.2-22.31,8.12-26.33,18.65
					C184.3,122.1,183.06,122.9,181.74,122.9z" class="st3"></path>
			</g>
			<g>
				<path d="M243.82,130.73c-0.73,0-1.47-0.24-2.08-0.75c-1.39-1.15-1.59-3.21-0.45-4.6
					c4.67-5.67,21.72-7.77,25.09-8.13c1.78-0.19,3.41,1.1,3.6,2.9s-1.1,3.41-2.9,3.6c-8.43,0.91-18.76,3.38-20.75,5.79
					C245.7,130.32,244.76,130.73,243.82,130.73z" class="st3"></path>
			</g>
			<g>
				<path d="M131.55,163.58c0,1.95,0.32,3.82,0.92,5.57c2.32,6.8,8.76,11.69,16.34,11.69c9.53,0,17.26-7.73,17.26-17.26
					s-7.73-17.26-17.26-17.26C139.28,146.32,131.55,154.05,131.55,163.58z" class="st3"></path>
				<path d="M148.82,184.11c-8.79,0-16.6-5.59-19.44-13.91c-0.72-2.13-1.09-4.36-1.09-6.62
					c0-11.32,9.21-20.53,20.53-20.53s20.53,9.21,20.53,20.53S160.14,184.11,148.82,184.11z M148.82,149.59
					c-7.72,0-13.99,6.28-13.99,13.99c0,1.55,0.25,3.07,0.74,4.51c1.93,5.67,7.26,9.48,13.25,9.48c7.71,0,13.99-6.28,13.99-13.99
					C162.81,155.86,156.53,149.59,148.82,149.59z" class="st3"></path>
			</g>
			<g>
				<path d="M179.14,239.52c-1.78,0-3.48-0.21-5.08-0.67c-6.27-1.77-10.75-5.33-13.33-10.57
					c-5.79-11.76,0.48-27.74,0.75-28.41c0.67-1.68,2.57-2.49,4.25-1.82c1.67,0.67,2.49,2.57,1.82,4.25l0,0
					c-0.05,0.14-5.46,13.99-0.95,23.12c1.75,3.55,4.78,5.89,9.24,7.15c11.6,3.28,35.92-13.3,46.46-31.67
					c3.2-5.57,7.59-15.84,1.18-22.08c-4.46-3.92-14.77,0.88-25.67,5.97c-11.94,5.57-25.48,11.87-38.89,11.27
					c-23.19-1.04-30.17-21.6-30.62-32.33c-0.08-1.8,1.32-3.33,3.13-3.4c1.79-0.07,3.33,1.33,3.4,3.13
					c0.05,1.01,1.43,25.03,24.39,26.07c11.83,0.54,24.58-5.42,35.84-10.66c13.52-6.3,25.19-11.74,32.85-4.87
					c0.03,0.03,0.06,0.05,0.08,0.08c7.17,6.9,7.17,17.59,0,30.09C217.91,221.68,195.36,239.52,179.14,239.52z" class="st3"></path>
			</g>
			<g>
				<path d="M181.94,396.57c-7.29,0-14.82-3.18-19.75-8.83c-25.44-29.03-5.02-67.22-4.81-67.61
					c0.87-1.58,2.85-2.17,4.44-1.3c1.58,0.87,2.16,2.85,1.3,4.43l0,0c-0.19,0.34-18.41,34.61,4,60.17
					c5.16,5.91,14.46,8.26,21.19,5.35c5.77-2.5,8.51-8.33,7.69-16.41c-0.18-1.8,1.13-3.4,2.92-3.58c1.8-0.17,3.4,1.13,3.58,2.92
					c1.11,10.99-3.12,19.39-11.6,23.07C188.11,395.99,185.05,396.57,181.94,396.57z" class="st3"></path>
			</g>
			<g>
				<path d="M396.01,353.06c-0.88,0-1.76-0.35-2.4-1.05c-1.22-1.32-1.15-3.37,0.16-4.6c4.05-3.79,15.04-9.17,27.64-2.43
					c1.59,0.85,2.19,2.83,1.34,4.42c-0.85,1.59-2.83,2.19-4.42,1.34c-11.53-6.17-19.76,1.14-20.1,1.45
					C397.59,352.78,396.8,353.06,396.01,353.06z" class="st3"></path>
			</g>
			<g>
				<path d="M433.41,365.65c-1.07,0-2.12-0.53-2.75-1.49c-0.98-1.51-0.55-3.53,0.95-4.51
					c0.66-0.44,15.46-10.62,10.52-35.65c-0.35-1.77,0.8-3.49,2.57-3.84c1.77-0.35,3.49,0.8,3.84,2.57
					c5.84,29.56-12.57,41.88-13.36,42.39C434.64,365.48,434.02,365.65,433.41,365.65z" class="st3"></path>
			</g>
			<g>
				<path d="M429.22,339.25c-0.14,0-0.28-0.01-0.42-0.03c-1.79-0.22-3.06-1.9-2.83-3.69c0.06-0.51,0.23-1.09,0.52-2.13
					c5.56-19.73,1.29-32.26-13.06-38.31c-1.66-0.7-2.44-2.62-1.74-4.28c0.7-1.67,2.62-2.44,4.28-1.74
					c11.19,4.72,17.82,13.33,19.17,24.91c1.06,9.06-1.34,17.56-2.36,21.2c-0.16,0.57-0.29,1-0.34,1.25
					C432.24,338.08,430.84,339.25,429.22,339.25z" class="st3"></path>
			</g>
			<g>
				<circle r="2.94" cy="151.45" cx="143.84" class="st0"></circle>
			</g>
		</g>
		<g>
			<path d="M406.74,396.95c-12.32,0-21.8-5.76-22.32-6.08c-1.54-0.95-2.01-2.97-1.06-4.5s2.96-2.01,4.5-1.06
				c0.23,0.14,14.35,8.6,29.08,3.38c11.47-4.06,20.52-15.23,26.9-33.2c0.26-1.31,0.38-2.16,0.44-2.7c-0.04-0.05-0.07-0.1-0.1-0.15
				c-0.27-0.42-1.06-1.9,0.03-3.65c0.33-0.66,6.52-13.83-1.06-28.21c-0.84,1.36-1.89,2.05-3.47,1.93c-3-0.23-3.4-3.13-3.75-5.69
				c-0.17-1.25-0.57-4.17-1.13-4.87c-0.71-0.76-1.23-1.77-1.95-3.17c-3.6-6.96-12.04-23.27-52.36-13.4
				c-1.75,0.42-3.52-0.64-3.95-2.4c-0.43-1.75,0.64-3.52,2.4-3.95c45.31-11.09,55.79,9.13,59.73,16.74c0.36,0.69,0.8,1.55,0.99,1.78
				c0.7,0.75,1.2,1.7,1.58,2.73c0.18-0.07,0.36-0.12,0.55-0.15c1.21-0.23,2.43,0.25,3.18,1.22c12.42,16.1,8.35,32.97,5.75,39.03
				c0.31,1.4,0.14,3.37-0.5,6.44c-0.03,0.14-0.07,0.29-0.12,0.42c-7.09,20.08-17.53,32.67-31.03,37.42
				C414.8,396.38,410.63,396.95,406.74,396.95z M444.28,348.88c-0.01,0.02-0.03,0.04-0.05,0.07
				C444.25,348.93,444.27,348.91,444.28,348.88z" class="st3"></path>
		</g>
		<g>
			<path d="M202.54,146.35c-0.72,0.14-20.34,1.88-18.9-6.06c1.44-7.94,14.14-13.99,23.23-6.49
				S202.54,146.35,202.54,146.35z" class="st0"></path>
		</g>
		<g>
			<path d="M175.85,123.84c0,0,4.33,5.63,0,11.54c-4.33,5.92-12.84-2.74-12.7-6.35" class="st0"></path>
		</g>
	</g>
</g>
</svg>
